<svg width="56" height="56" viewBox="0 0 56 56" fill="none" xmlns="http://www.w3.org/2000/svg">
<path d="M4.66699 8.55565V10.1446H8.55588C8.98542 10.1447 9.33361 10.4929 9.33366 10.9224V17.0049V21.8872V28.0001V34.2223V34.2255V47.4446H10.8892V38.8891V15.5557C10.8886 15.5374 10.8886 15.5192 10.8892 15.501V11.4571V8.55565H8.55588H4.66699ZM12.4448 16.3334V38.1112H51.3337V16.3334H12.4448ZM6.22255 17.7826V21.1095H7.7781V17.7826H6.22255ZM23.3337 17.8891C27.1581 17.8891 30.4492 20.206 31.8892 23.5067C33.3293 20.206 36.6204 17.8891 40.4448 17.8891C45.5902 17.8891 49.7781 22.0769 49.7781 27.2224C49.7781 32.3679 45.5902 36.5557 40.4448 36.5557C36.6205 36.5557 33.3293 34.2417 31.8892 30.9412C30.4491 34.2417 27.158 36.5557 23.3337 36.5557C18.1882 36.5557 14.0003 32.3679 14.0003 27.2224C14.0003 22.0769 18.1882 17.8891 23.3337 17.8891ZM14.7234 17.8921C14.7416 17.8915 14.7598 17.8915 14.778 17.8921C15.2076 17.8921 15.5558 18.2403 15.5558 18.6699C15.5558 19.0994 15.2076 19.4477 14.778 19.4477C14.3485 19.4477 14.0002 19.0994 14.0002 18.6699C13.9992 18.2608 14.3153 17.9209 14.7233 17.8921H14.7234ZM48.9456 17.8921C48.9638 17.8915 48.982 17.8915 49.0002 17.8921C49.4298 17.8921 49.778 18.2403 49.778 18.6699C49.778 19.0994 49.4298 19.4477 49.0002 19.4477C48.5707 19.4477 48.2225 19.0994 48.2225 18.6699C48.2214 18.2608 48.5375 17.9209 48.9455 17.8921H48.9456ZM23.3337 19.4447C19.0289 19.4447 15.5559 22.9178 15.5559 27.2225C15.5559 31.5274 19.0289 35.0003 23.3337 35.0003C27.6384 35.0003 31.1115 31.5274 31.1114 27.2225C31.1115 22.9178 27.6384 19.4447 23.3337 19.4447ZM40.4448 19.4447C36.14 19.4447 32.667 22.9178 32.667 27.2225C32.667 31.5274 36.14 35.0003 40.4448 35.0003C44.7495 35.0003 48.2226 31.5274 48.2225 27.2225C48.2226 22.9178 44.7495 19.4447 40.4448 19.4447ZM24.2117 20.3257C24.595 20.3257 24.9802 20.3416 25.3237 20.3774C25.6672 20.4134 25.9348 20.4348 26.2716 20.5961C26.2794 20.6008 26.2881 20.607 26.2959 20.6117C26.4648 20.7002 26.6813 20.9175 26.7456 21.1707C26.8101 21.4238 26.7486 21.622 26.6969 21.748C26.594 22.0012 26.4831 22.1096 26.3689 22.2371C26.1407 22.4938 25.867 22.7517 25.6033 23.0453C25.3396 23.3388 25.0968 23.6578 24.9622 23.9476C24.8624 24.1644 24.8359 24.3455 24.8468 24.5249C25.3005 24.7816 25.6848 25.1417 25.9618 25.5822C26.6875 25.3273 27.3769 25.161 27.9943 25.175C28.774 25.1859 29.5454 25.4439 29.9357 26.1199C30.1503 26.4917 30.1422 26.7272 30.1788 27.0618C30.2154 27.3964 30.2335 27.7753 30.2335 28.1586C30.2335 28.5418 30.2149 28.9272 30.1788 29.2705C30.1427 29.614 30.1237 29.8791 29.9631 30.2154C29.9584 30.2247 29.9553 30.2335 29.9507 30.2429C29.862 30.4118 29.6417 30.6257 29.3886 30.6895C29.1354 30.7548 28.938 30.6956 28.8113 30.6438C28.5582 30.5408 28.4536 30.4292 28.3252 30.3157C28.0685 30.0875 27.8106 29.8139 27.5171 29.55C27.2235 29.2864 26.9045 29.0443 26.6147 28.909C26.3822 28.8012 26.1902 28.7757 25.998 28.7966C25.7539 29.2067 25.427 29.5619 25.0288 29.8235C25.29 30.5651 25.4574 31.2661 25.4481 31.8834C25.4372 32.664 25.1829 33.4369 24.5062 33.8278C24.1345 34.0428 23.8959 34.0366 23.5613 34.0739C23.2267 34.1097 22.8479 34.1256 22.4645 34.1256C22.0812 34.1256 21.6959 34.1097 21.3526 34.0739C21.0092 34.0378 20.7439 34.0159 20.4077 33.8552C20.3984 33.8505 20.3896 33.8443 20.3802 33.8396C20.2114 33.7511 19.9979 33.5306 19.9336 33.2775C19.8694 33.0244 19.9274 32.8293 19.9792 32.7033C20.0822 32.45 20.1932 32.3417 20.3073 32.2142C20.5355 31.9575 20.8123 31.6995 21.076 31.406C21.3397 31.1125 21.5793 30.7935 21.714 30.5037C21.8142 30.2882 21.8419 30.1078 21.8326 29.9294C21.4062 29.6912 21.0342 29.3655 20.7601 28.9633C20.0087 29.2311 19.2997 29.4041 18.6759 29.3917C17.8953 29.3808 17.1253 29.1235 16.7345 28.4468C16.5198 28.075 16.525 27.8396 16.4884 27.505C16.4523 27.1704 16.4368 26.7916 16.4368 26.4082C16.4368 26.0249 16.4523 25.6395 16.4884 25.2962C16.5245 24.9529 16.5436 24.6875 16.7041 24.3513C16.7119 24.3373 16.7181 24.3243 16.7254 24.3118C16.7497 24.2667 16.7643 24.2793 16.7953 24.2419C16.8625 24.1278 16.9576 24.0325 17.0717 23.9655C17.1361 23.9274 17.2057 23.8986 17.2783 23.8804V23.8773C17.753 23.7567 17.9649 23.9599 18.1108 24.0626C18.2567 24.1645 18.3652 24.2681 18.4845 24.3816C18.7232 24.6082 18.9825 24.8725 19.2623 25.1138C19.7382 25.5242 20.1929 25.7762 20.5991 25.7731C20.8488 25.3067 21.2027 24.9064 21.6442 24.6186C21.3851 23.8803 21.2187 23.1827 21.228 22.5678C21.2389 21.7872 21.4961 21.0141 22.1729 20.6234C22.543 20.4114 22.7803 20.4176 23.1147 20.3803C23.4491 20.3445 23.8278 20.3255 24.2115 20.3255L24.2117 20.3257ZM41.3228 20.3257C41.7061 20.3257 42.0913 20.3416 42.4348 20.3774C42.7783 20.4134 43.0459 20.4348 43.3827 20.5961C43.3905 20.6008 43.3992 20.607 43.407 20.6117C43.5759 20.7002 43.7894 20.9175 43.8536 21.1707C43.9179 21.4238 43.8598 21.622 43.808 21.748C43.7051 22.0012 43.5941 22.1096 43.4799 22.2371C43.2517 22.4938 42.978 22.7517 42.7143 23.0453C42.4506 23.3388 42.2078 23.6578 42.0732 23.9476C41.9724 24.1644 41.9464 24.3455 41.9578 24.5249C42.4115 24.7816 42.7958 25.1417 43.0728 25.5822C43.7985 25.3274 44.4879 25.1605 45.1054 25.175C45.885 25.1859 46.6565 25.4439 47.0468 26.1199C47.2614 26.4917 47.2533 26.7272 47.2898 27.0618C47.3264 27.3964 47.3446 27.7753 47.3446 28.1586C47.3446 28.5418 47.3259 28.9272 47.2898 29.2705C47.2537 29.614 47.2347 29.8791 47.0741 30.2154C47.0694 30.2247 47.0663 30.2335 47.0617 30.2429C46.973 30.4118 46.7528 30.6257 46.4996 30.6895C46.2465 30.7548 46.049 30.6956 45.9223 30.6438C45.6692 30.5408 45.5646 30.4292 45.4362 30.3157C45.1795 30.0875 44.9216 29.8139 44.6281 29.55C44.3346 29.2864 44.0155 29.0443 43.7257 28.909C43.4932 28.8017 43.3012 28.7759 43.109 28.7966C42.8649 29.2067 42.538 29.5619 42.1398 29.8235C42.401 30.5651 42.5677 31.2661 42.5591 31.8834C42.5482 32.664 42.2939 33.4369 41.6172 33.8278C41.2455 34.0428 41.007 34.0366 40.6723 34.0739C40.3377 34.1097 39.9589 34.1256 39.5756 34.1256C39.1922 34.1256 38.8069 34.1097 38.4636 34.0739C38.1202 34.0378 37.8549 34.0159 37.5187 33.8552C37.5094 33.8505 37.5006 33.8443 37.4913 33.8396C37.3224 33.7511 37.1089 33.5306 37.0446 33.2775C36.9804 33.0244 37.0384 32.8293 37.0902 32.7033C37.1932 32.45 37.3043 32.3417 37.4184 32.2142C37.6466 31.9575 37.9234 31.6995 38.1871 31.406C38.4508 31.1125 38.6904 30.7935 38.8251 30.5037C38.9253 30.2882 38.9533 30.1078 38.9436 29.9294C38.5172 29.6912 38.1453 29.3655 37.8711 28.9633C37.1197 29.2311 36.4107 29.4041 35.7869 29.3917C35.0063 29.3808 34.2363 29.1235 33.8455 28.4468C33.6308 28.075 33.636 27.8396 33.5994 27.505C33.5633 27.1704 33.5478 26.7916 33.5478 26.4082C33.5478 26.0249 33.5633 25.6395 33.5994 25.2962C33.6355 24.9529 33.6547 24.6875 33.8151 24.3513C33.8229 24.3373 33.8291 24.3243 33.8364 24.3118C33.8607 24.2667 33.8753 24.2793 33.9063 24.2419C33.9735 24.1278 34.0686 24.0325 34.1828 23.9655C34.2472 23.9274 34.3167 23.8986 34.3894 23.8804V23.8773C34.5081 23.8471 34.6104 23.8378 34.6993 23.8409C34.9659 23.8518 35.1123 23.9857 35.2218 24.0627C35.3677 24.1646 35.4762 24.2681 35.5955 24.3817C35.8342 24.6083 36.0935 24.8726 36.3733 25.1139C36.8492 25.5242 37.304 25.7767 37.7101 25.7732C37.9602 25.306 38.3158 24.9067 38.7583 24.6187C38.4991 23.8803 38.3304 23.1829 38.339 22.5679C38.3499 21.7873 38.6071 21.0142 39.2839 20.6235C39.654 20.4115 39.8913 20.4177 40.2257 20.3804C40.5601 20.3446 40.9389 20.3256 41.3225 20.3256L41.3228 20.3257ZM24.2117 21.8813V21.8844C23.8751 21.8844 23.5407 21.8984 23.285 21.9268C23.1205 21.945 22.9799 21.9905 22.9326 21.9999C22.8906 22.0358 22.79 22.1632 22.7837 22.5893C22.7791 22.9499 22.9594 23.5395 23.1605 24.1296C23.2188 24.1265 23.2745 24.1114 23.3337 24.1114C23.3764 24.1114 23.4159 24.1223 23.4582 24.1238C23.4957 23.8405 23.4421 23.5258 23.5524 23.2883C23.792 22.7728 24.1305 22.3509 24.4456 22.0001C24.4861 21.955 24.5032 21.9388 24.5429 21.8968C24.4276 21.8968 24.3291 21.8814 24.2117 21.8814V21.8813ZM41.3228 21.8813V21.8844C40.9862 21.8844 40.6518 21.8984 40.3962 21.9268C40.2317 21.945 40.091 21.9905 40.0437 21.9999C40.0017 22.0358 39.9011 22.1632 39.8949 22.5893C39.8902 22.9499 40.0705 23.5395 40.2716 24.1296C40.3299 24.1265 40.3856 24.1114 40.4448 24.1114C40.4875 24.1114 40.527 24.1223 40.5693 24.1238C40.6067 23.8405 40.5532 23.5258 40.6635 23.2883C40.9031 22.7728 41.2416 22.3509 41.5567 22.0001C41.5972 21.955 41.6143 21.9388 41.654 21.8968C41.5387 21.8968 41.4403 21.8814 41.3228 21.8814V21.8813ZM23.3337 25.667C22.4653 25.667 21.7781 26.3542 21.7781 27.2225C21.7781 28.0908 22.4653 28.7781 23.3337 28.7781C24.202 28.7781 24.8892 28.0908 24.8892 27.2225C24.8892 26.3542 24.202 25.667 23.3337 25.667ZM40.4448 25.667C39.5764 25.667 38.8892 26.3542 38.8892 27.2225C38.8892 28.0908 39.5764 28.7781 40.4448 28.7781C41.3131 28.7781 42.0003 28.0908 42.0003 27.2225C42.0003 26.3542 41.3131 25.667 40.4448 25.667ZM18.0077 26.0709C18.003 26.1892 17.9921 26.2914 17.9921 26.4112C17.9921 26.7483 18.0062 27.0824 18.0347 27.338C18.0526 27.5007 18.0967 27.6405 18.1076 27.6903C18.1448 27.7335 18.2731 27.8392 18.697 27.8392C19.0594 27.8438 19.6547 27.6604 20.2465 27.4594C20.2403 27.3801 20.2222 27.3034 20.2222 27.2225C20.2222 27.2085 20.2253 27.1969 20.2253 27.1829C19.4414 27.0592 18.7337 26.7177 18.2444 26.2958C18.1453 26.211 18.0961 26.1534 18.0074 26.0709H18.0077ZM35.1188 26.0709C35.1141 26.1892 35.1032 26.2914 35.1032 26.4112C35.1032 26.7483 35.1173 27.0824 35.1458 27.338C35.1637 27.5007 35.2078 27.6405 35.2187 27.6903C35.2559 27.7335 35.3842 27.8392 35.8081 27.8392C36.1705 27.8438 36.7658 27.6604 37.3576 27.4594C37.3514 27.3801 37.3333 27.3034 37.3333 27.2225C37.3333 27.2085 37.3364 27.1964 37.3364 27.1829C36.5525 27.0592 35.8447 26.7177 35.3555 26.2958C35.2564 26.211 35.2073 26.1534 35.1185 26.0709H35.1188ZM23.3337 26.6117C23.672 26.612 23.9458 26.8871 23.9443 27.2255C23.9441 27.5626 23.6708 27.8359 23.3337 27.8361C22.9965 27.8359 22.7232 27.5626 22.723 27.2255C22.7215 26.8871 22.9953 26.612 23.3337 26.6117ZM40.4448 26.6117C40.7831 26.612 41.0569 26.8871 41.0554 27.2255C41.0552 27.5626 40.7819 27.8359 40.4448 27.8361C40.1076 27.8359 39.8343 27.5626 39.8341 27.2255C39.8326 26.8871 40.1064 26.612 40.4448 26.6117ZM27.9608 26.7303C27.6116 26.721 27.0218 26.9025 26.4326 27.104C26.4342 27.1443 26.4451 27.1819 26.4451 27.2225C26.4451 27.2857 26.4295 27.3454 26.4268 27.4078C26.7108 27.4494 27.0295 27.3886 27.2684 27.4991C27.7839 27.7386 28.206 28.0772 28.5567 28.3923C28.6032 28.4326 28.619 28.4522 28.663 28.4925C28.6677 28.3763 28.6786 28.2765 28.6786 28.1583C28.6786 27.8213 28.6609 27.4872 28.633 27.2316C28.6153 27.0692 28.571 26.9293 28.5601 26.8792C28.5232 26.8361 28.3951 26.7303 27.9706 26.7303H27.9608ZM45.0719 26.7303C44.7227 26.721 44.1329 26.9025 43.5437 27.104C43.5453 27.1443 43.5562 27.1818 43.5562 27.2225C43.5562 27.2857 43.5421 27.3456 43.5379 27.4078C43.8219 27.4494 44.1406 27.3886 44.3795 27.4991C44.895 27.7386 45.3171 28.0772 45.6678 28.3923C45.7143 28.4326 45.7301 28.4522 45.7741 28.4925C45.7788 28.3763 45.7897 28.2765 45.7897 28.1583C45.7897 27.8213 45.772 27.4872 45.7441 27.2316C45.7264 27.0692 45.6821 26.9293 45.6712 26.8792C45.6344 26.8361 45.5063 26.7303 45.0817 26.7303H45.0719ZM6.22255 28.7781V33.4447H7.7781V28.7781H6.22255ZM23.5159 30.3154C23.4543 30.3201 23.3962 30.3336 23.3337 30.3336C23.2943 30.3336 23.2573 30.3227 23.2182 30.3212C23.1798 30.6053 23.2349 30.9214 23.1241 31.1597C22.8846 31.6752 22.549 32.0971 22.2339 32.4479C22.1935 32.493 22.1764 32.5092 22.1367 32.5512C22.2513 32.5512 22.3482 32.5667 22.4648 32.5667C22.8018 32.5667 23.1389 32.5527 23.3945 32.5243C23.5547 32.5067 23.6915 32.4622 23.7439 32.4513C23.7854 32.4146 23.8866 32.2848 23.8928 31.8589C23.8974 31.4969 23.7181 30.9079 23.516 30.3155L23.5159 30.3154ZM40.6271 30.3154C40.5655 30.3185 40.5073 30.3336 40.4448 30.3336C40.4054 30.3336 40.3684 30.3227 40.3293 30.3212C40.2912 30.6053 40.3458 30.9214 40.2352 31.1597C39.9957 31.6752 39.6601 32.0971 39.345 32.4479C39.3046 32.493 39.2875 32.5092 39.2478 32.5512C39.3625 32.5512 39.4593 32.5667 39.5759 32.5667C39.9129 32.5667 40.25 32.5527 40.5056 32.5243C40.6658 32.5067 40.8026 32.4622 40.855 32.4513C40.8966 32.4146 40.9977 32.2848 41.0039 31.8589C41.0086 31.4969 40.8293 30.9079 40.6272 30.3155L40.6271 30.3154ZM14.7234 35.0033C14.7416 35.0027 14.7598 35.0027 14.778 35.0033C15.2076 35.0033 15.5558 35.3516 15.5558 35.7811C15.5558 36.2107 15.2076 36.5589 14.778 36.5589C14.3485 36.5589 14.0002 36.2107 14.0002 35.7811C13.9992 35.372 14.3153 35.0321 14.7233 35.0033H14.7234ZM48.9456 35.0033C48.9638 35.0027 48.982 35.0027 49.0002 35.0033C49.4298 35.0033 49.778 35.3516 49.778 35.7811C49.778 36.2107 49.4298 36.5589 49.0002 36.5589C48.5707 36.5589 48.2225 36.2107 48.2225 35.7811C48.2214 35.372 48.5375 35.0321 48.9455 35.0033H48.9456ZM15.4769 39.667V45.1118H23.2911V39.667H15.4769ZM29.5407 39.667V45.1118H49.8085V39.667H29.5407ZM17.1114 41.2255H18.667V43.5589H17.1114V41.2255ZM20.2225 41.2255H21.7781V43.5589H20.2225V41.2255ZM31.1114 41.2255H32.667V43.5589H31.1114V41.2255ZM34.2074 41.2255H35.7629V43.5589H34.2074V41.2255ZM37.3185 41.2255H38.874V43.5589H37.3185V41.2255ZM40.4296 41.2255H41.9851V43.5589H40.4296V41.2255ZM43.5407 41.2255H45.0962V43.5589H43.5407V41.2255ZM46.6518 41.2255H48.2074V43.5589H46.6518V41.2255Z" fill="url(#paint0_linear_31_498)"/>
<path fill-rule="evenodd" clip-rule="evenodd" d="M4.67773 36.5562V38.1118H7.78885V36.5562H4.67773Z" fill="url(#paint1_linear_31_498)"/>
<path fill-rule="evenodd" clip-rule="evenodd" d="M4.67773 24.1118V25.6673H7.78885V24.1118H4.67773Z" fill="url(#paint2_linear_31_498)"/>
<defs>
<linearGradient id="paint0_linear_31_498" x1="28.0003" y1="8.55565" x2="28.0003" y2="47.4446" gradientUnits="userSpaceOnUse">
<stop stop-color="#FF0000"/>
<stop offset="1" stop-color="#FF8522"/>
</linearGradient>
<linearGradient id="paint1_linear_31_498" x1="6.23329" y1="36.5562" x2="6.23329" y2="38.1118" gradientUnits="userSpaceOnUse">
<stop stop-color="#FF0000"/>
<stop offset="1" stop-color="#FF8522"/>
</linearGradient>
<linearGradient id="paint2_linear_31_498" x1="6.23329" y1="24.1118" x2="6.23329" y2="25.6673" gradientUnits="userSpaceOnUse">
<stop stop-color="#FF0000"/>
<stop offset="1" stop-color="#FF8522"/>
</linearGradient>
</defs>
</svg>
