<svg width="40" height="40" viewBox="0 0 40 40" fill="none" xmlns="http://www.w3.org/2000/svg">
<path d="M26.25 17.5V12.5C26.25 12.1685 26.1183 11.8505 25.8839 11.6161C25.6495 11.3817 25.3315 11.25 25 11.25H24.375V7.5C24.375 7.16848 24.2433 6.85054 24.0089 6.61612C23.7745 6.3817 23.4565 6.25 23.125 6.25C22.7935 6.25 22.4755 6.3817 22.2411 6.61612C22.0067 6.85054 21.875 7.16848 21.875 7.5V11.25H18.125V7.5C18.125 7.16848 17.9933 6.85054 17.7589 6.61612C17.5245 6.3817 17.2065 6.25 16.875 6.25C16.5435 6.25 16.2255 6.3817 15.9911 6.61612C15.7567 6.85054 15.625 7.16848 15.625 7.5V11.25H15C14.6685 11.25 14.3505 11.3817 14.1161 11.6161C13.8817 11.8505 13.75 12.1685 13.75 12.5V17.5C13.75 19.1576 14.4085 20.7473 15.5806 21.9194C16.7527 23.0915 18.3424 23.75 20 23.75C21.6576 23.75 23.2473 23.0915 24.4194 21.9194C25.5915 20.7473 26.25 19.1576 26.25 17.5Z" fill="url(#paint0_linear_31_509)"/>
<path d="M20 1.25C15.0272 1.25 10.2581 3.22544 6.74175 6.74175C3.22544 10.2581 1.25 15.0272 1.25 20C1.25511 21.047 1.34288 22.0919 1.5125 23.125C1.91482 22.8262 2.37437 22.6134 2.8625 22.5C3.2128 22.4142 3.56749 22.3475 3.925 22.3C3.81497 21.5381 3.7565 20.7697 3.75 20C3.75936 16.8414 4.68906 13.754 6.42539 11.1154C8.16172 8.4768 10.6294 6.40145 13.5266 5.14318C16.4238 3.88491 19.6249 3.49827 22.7383 4.03055C25.8518 4.56283 28.7426 5.99097 31.0573 8.14026C33.3719 10.2896 35.0099 13.0668 35.7711 16.1324C36.5322 19.1979 36.3834 22.4189 35.3429 25.4012C34.3024 28.3835 32.4153 30.998 29.9124 32.9247C27.4095 34.8515 24.3993 36.007 21.25 36.25V26.25C20.422 26.3833 19.578 26.3833 18.75 26.25V37.5C18.75 37.8315 18.8817 38.1495 19.1161 38.3839C19.3505 38.6183 19.6685 38.75 20 38.75C24.9728 38.75 29.7419 36.7746 33.2583 33.2583C36.7746 29.7419 38.75 24.9728 38.75 20C38.75 15.0272 36.7746 10.2581 33.2583 6.74175C29.7419 3.22544 24.9728 1.25 20 1.25Z" fill="url(#paint1_linear_31_509)"/>
<path d="M3.46271 24.9C3.20964 24.9623 2.98237 25.1022 2.81271 25.3C1.898 26.3931 1.35424 27.7485 1.25988 29.1706C1.16551 30.5928 1.52544 32.0082 2.28771 33.2125C2.89113 34.1934 3.73462 35.0043 4.73852 35.5685C5.74242 36.1328 6.8736 36.4319 8.02521 36.4375C8.56022 36.4432 9.09375 36.3802 9.61271 36.25C9.86578 36.1877 10.093 36.0478 10.2627 35.85C11.1781 34.7598 11.7225 33.4063 11.8169 31.9858C11.9113 30.5654 11.5508 29.1518 10.7877 27.95C10.0494 26.7291 8.94125 25.7753 7.6241 25.2268C6.30696 24.6784 4.84932 24.5639 3.46271 24.9Z" fill="url(#paint2_linear_31_509)"/>
<defs>
<linearGradient id="paint0_linear_31_509" x1="20" y1="6.25" x2="20" y2="23.75" gradientUnits="userSpaceOnUse">
<stop stop-color="#FF0000"/>
<stop offset="1" stop-color="#FF8522"/>
</linearGradient>
<linearGradient id="paint1_linear_31_509" x1="20" y1="1.25" x2="20" y2="38.75" gradientUnits="userSpaceOnUse">
<stop stop-color="#FF0000"/>
<stop offset="1" stop-color="#FF8522"/>
</linearGradient>
<linearGradient id="paint2_linear_31_509" x1="6.5384" y1="24.7111" x2="6.5384" y2="36.4379" gradientUnits="userSpaceOnUse">
<stop stop-color="#FF0000"/>
<stop offset="1" stop-color="#FF8522"/>
</linearGradient>
</defs>
</svg>
