<svg width="31" height="30" viewBox="0 0 31 30" fill="none" xmlns="http://www.w3.org/2000/svg">
<path d="M23.5458 5.29973V3.52472C23.5458 2.53336 22.7029 1.71879 21.6785 1.71879H9.22384C8.19942 1.71879 7.35163 2.53336 7.35163 3.52472V5.29973H23.5458ZM9.22384 5.29989V4.73013C9.2225 4.39724 9.50027 4.12631 9.84426 4.12502C10.1882 4.12631 10.466 4.39724 10.4647 4.73013V5.29989H9.22384ZM12.023 5.29989V4.73013C12.0217 4.3954 12.3024 4.12371 12.6483 4.12502C12.9928 4.12566 13.2713 4.3968 13.27 4.73013V5.29989H12.023ZM14.8283 5.29989V4.73013C14.827 4.39724 15.1047 4.12631 15.4487 4.12502C15.7946 4.12371 16.0753 4.3954 16.074 4.73013V5.29989H14.8283ZM17.6287 5.29989V4.73013C17.6273 4.3954 17.9081 4.12371 18.254 4.12502C18.598 4.12631 18.8758 4.39724 18.8744 4.73013V5.29989H17.6287ZM20.4328 5.29989V4.73013C20.4315 4.39724 20.7092 4.12631 21.0532 4.12502C21.3991 4.12373 21.6798 4.3954 21.6785 4.73013V5.29989H20.4328ZM8.59855 6.55958V8.13476L7.28715 9.25556C6.92497 9.56482 6.51246 9.88887 6.16553 10.3103C5.81859 10.7319 5.54024 11.2831 5.54024 11.9339C5.46275 16.898 5.62129 22.1956 5.57678 27.037C5.55865 27.7061 6.11381 28.2582 6.80545 28.259L7.55847 28.2602C7.4398 27.93 7.4177 27.5645 7.51711 27.2053L8.64482 23.1308C8.90995 22.1732 9.94601 21.5981 10.9355 21.8547C11.7943 22.0775 12.3549 22.8591 12.315 23.6877C12.5441 23.5541 12.8015 23.4617 13.079 23.4334C13.0039 23.2388 12.9573 23.0314 12.9573 22.813C12.9573 22.6 13.0026 22.3985 13.0741 22.2079H12.9573C11.9329 22.2079 11.09 21.3933 11.09 20.4019C11.09 19.5726 11.6831 18.874 12.4756 18.6655C12.3874 18.4559 12.3357 18.228 12.3357 17.9897C12.3357 17.3964 12.6414 16.8706 13.1033 16.5405C11.6883 15.7234 10.736 14.1956 10.736 12.4589C10.736 9.87462 12.8401 7.74278 15.4487 7.74278C18.0574 7.74278 20.1615 9.87462 20.1615 12.4589C20.1615 13.9684 19.4404 15.3189 18.3234 16.1838H18.5667C19.5911 16.1838 20.4328 16.9983 20.4328 17.9897C20.4328 18.8184 19.8412 19.5207 19.0496 19.7309C19.1369 19.9391 19.1871 20.1649 19.1871 20.4019C19.1871 20.6131 19.1416 20.8133 19.0715 21.0023H19.1871C20.2115 21.0023 21.0532 21.8216 21.0532 22.813C21.0532 23.7416 20.3123 24.507 19.3768 24.6012C19.4525 24.7967 19.4997 25.0058 19.4997 25.2252C19.4997 25.4432 19.4528 25.6503 19.3781 25.8445C20.313 25.9396 21.0532 26.708 21.0532 27.6362C21.0532 27.8561 21.0059 28.0646 20.9303 28.2602L24.2295 28.259C24.9175 28.2587 25.4771 27.7181 25.4789 27.0523C25.4847 22.0261 25.4812 16.9159 25.4812 11.8503C25.4812 10.7105 24.7987 9.6803 23.7416 9.22847L22.3001 8.11713V6.55958H8.59855ZM15.4487 8.94825C13.5393 8.94825 11.9817 10.5019 11.9817 12.4589C11.9817 14.4159 13.5393 15.966 15.4487 15.966C17.3582 15.966 18.9158 14.4159 18.9158 12.4589C18.9158 10.5019 17.3582 8.94825 15.4487 8.94825ZM15.4487 9.55336C15.7932 9.55203 16.0733 9.82159 16.074 10.155C16.418 10.1563 16.6958 10.4272 16.6944 10.7601C16.6931 11.0911 16.4161 11.3592 16.074 11.3605H15.4487V11.9609H16.074C16.418 11.9622 16.6957 12.2331 16.6944 12.566V14.3731C16.6957 14.706 16.418 14.9769 16.074 14.9782C16.0726 15.3111 15.7927 15.5799 15.4487 15.5786C15.1066 15.5773 14.8296 15.3093 14.8283 14.9782C14.4824 14.9795 14.2017 14.7079 14.203 14.3731C14.2037 14.0398 14.4838 13.7702 14.8283 13.7715H15.4487V13.1664H14.8283C14.4843 13.1677 14.2044 12.8989 14.203 12.566V10.7601C14.2017 10.4253 14.4824 10.1537 14.8283 10.155C14.829 9.82345 15.1062 9.55465 15.4487 9.55336V9.55336ZM14.203 17.3893C13.8472 17.3893 13.5826 17.6453 13.5826 17.9897C13.5826 18.334 13.8472 18.5948 14.203 18.5948H18.5666C18.9225 18.5948 19.1871 18.334 19.1871 17.9897C19.1871 17.6453 18.9225 17.3893 18.5666 17.3893H14.203ZM12.9573 19.8015C12.6015 19.8015 12.3357 20.0575 12.3357 20.4019C12.3357 20.7462 12.6015 21.0023 12.9573 21.0023H17.3197C17.6755 21.0023 17.9414 20.7462 17.9414 20.4019C17.9414 20.0575 17.6755 19.8015 17.3197 19.8015H12.9573ZM14.8283 22.2079C14.4725 22.2079 14.203 22.4686 14.203 22.8129C14.203 23.1573 14.4725 23.4145 14.8283 23.4145H19.1871C19.5429 23.4145 19.8075 23.1573 19.8075 22.8129C19.8075 22.4686 19.5429 22.2079 19.1871 22.2079H14.8283ZM10.3613 23.0013C10.1195 23.03 9.91819 23.1934 9.84912 23.4428L8.7202 27.5173C8.62811 27.8499 8.81928 28.17 9.16301 28.259C9.50673 28.3482 9.83245 28.1619 9.92455 27.8293L11.0523 23.7548C11.1443 23.4222 10.9568 23.1092 10.6131 23.0202C10.5272 22.9973 10.4419 22.9917 10.3613 23.0019V23.0013ZM13.27 24.62C12.9141 24.62 12.6483 24.8808 12.6483 25.2251C12.6483 25.5695 12.9141 25.8256 13.27 25.8256H17.6287C17.9845 25.8256 18.254 25.5695 18.254 25.2251C18.254 24.8808 17.9846 24.62 17.6287 24.62H13.27ZM11.6775 26.1552C11.4868 26.8516 11.286 27.5781 11.0851 28.2602H13.0814C13.0054 28.0647 12.9573 27.8561 12.9573 27.6362C12.9573 27.4164 13.0042 27.2081 13.0802 27.0123C12.4879 26.8418 11.958 26.5796 11.6775 26.1552V26.1552ZM14.8283 27.0311C14.4725 27.0311 14.203 27.2919 14.203 27.6362C14.203 27.9806 14.4725 28.2378 14.8283 28.2378H19.1871C19.5429 28.2378 19.8075 27.9806 19.8075 27.6362C19.8075 27.2919 19.5429 27.0311 19.1871 27.0311H14.8283Z" fill="url(#paint0_linear_31_492)"/>
<defs>
<linearGradient id="paint0_linear_31_492" x1="15.5004" y1="1.71879" x2="15.5004" y2="28.2813" gradientUnits="userSpaceOnUse">
<stop stop-color="#FF0000"/>
<stop offset="1" stop-color="#FF8522"/>
</linearGradient>
</defs>
</svg>
