<svg width="38" height="38" viewBox="0 0 38 38" fill="none" xmlns="http://www.w3.org/2000/svg">
<g clip-path="url(#clip0_31_480)">
<path d="M35.6253 3.16667H2.37533C1.50087 3.16667 0.791992 3.87555 0.791992 4.75001V28.5C0.791992 29.3745 1.50087 30.0833 2.37533 30.0833H35.6253C36.4998 30.0833 37.2087 29.3745 37.2087 28.5V4.75001C37.2087 3.87555 36.4998 3.16667 35.6253 3.16667Z" stroke="url(#paint0_linear_31_480)" stroke-width="2" stroke-linecap="round" stroke-linejoin="round"/>
<path d="M11.083 34.8333H26.9163" stroke="url(#paint1_linear_31_480)" stroke-width="2" stroke-linecap="round" stroke-linejoin="round"/>
<path d="M16.625 30.0833V34.8333" stroke="url(#paint2_linear_31_480)" stroke-width="2" stroke-linecap="round" stroke-linejoin="round"/>
<path d="M21.375 30.0833V34.8333" stroke="url(#paint3_linear_31_480)" stroke-width="2" stroke-linecap="round" stroke-linejoin="round"/>
<path d="M20.4152 17.9407L29.1773 14.1867C29.3201 14.1258 29.4419 14.0244 29.5275 13.8949C29.6131 13.7654 29.6587 13.6136 29.6587 13.4583C29.6587 13.3031 29.6131 13.1513 29.5275 13.0218C29.4419 12.8923 29.3201 12.7908 29.1773 12.73L20.4152 8.97591C20.2181 8.89141 20.0058 8.84784 19.7913 8.84784C19.5769 8.84784 19.3646 8.89141 19.1675 8.97591L8.70801 13.4583L19.1675 17.9407C19.3646 18.0253 19.5769 18.0688 19.7913 18.0688C20.0058 18.0688 20.2181 18.0253 20.4152 17.9407V17.9407Z" stroke="url(#paint4_linear_31_480)" stroke-width="2" stroke-linecap="round" stroke-linejoin="round"/>
<path d="M13.458 15.4945V20.8858C13.458 21.0327 13.4989 21.1767 13.5761 21.3016C13.6532 21.4266 13.7637 21.5277 13.895 21.5935L19.0836 24.187C19.3034 24.2968 19.5457 24.354 19.7913 24.354C20.037 24.354 20.2793 24.2968 20.4991 24.187L25.6877 21.5935C25.819 21.5277 25.9294 21.4266 26.0066 21.3016C26.0838 21.1767 26.1247 21.0327 26.1247 20.8858V15.4945" stroke="url(#paint5_linear_31_480)" stroke-width="2" stroke-linecap="round" stroke-linejoin="round"/>
<path d="M8.70801 13.4583V19" stroke="url(#paint6_linear_31_480)" stroke-width="2" stroke-linecap="round" stroke-linejoin="round"/>
<path d="M8.70875 19L6.53484 24.7982C6.51191 24.8581 6.50395 24.9226 6.51162 24.9863C6.5193 25.05 6.54239 25.1108 6.57889 25.1635C6.61539 25.2162 6.6642 25.2592 6.72108 25.2888C6.77797 25.3184 6.84121 25.3337 6.90534 25.3333H10.5122C10.5763 25.3337 10.6395 25.3184 10.6964 25.2888C10.7533 25.2592 10.8021 25.2162 10.8386 25.1635C10.8751 25.1108 10.8982 25.05 10.9059 24.9863C10.9136 24.9226 10.9056 24.8581 10.8827 24.7982L8.70875 19Z" stroke="url(#paint7_linear_31_480)" stroke-width="2" stroke-linecap="round" stroke-linejoin="round"/>
</g>
<defs>
<linearGradient id="paint0_linear_31_480" x1="19.0003" y1="3.16667" x2="19.0003" y2="30.0833" gradientUnits="userSpaceOnUse">
<stop stop-color="#FF0000"/>
<stop offset="1" stop-color="#FF8522"/>
</linearGradient>
<linearGradient id="paint1_linear_31_480" x1="18.9997" y1="34.8333" x2="18.9997" y2="35.8333" gradientUnits="userSpaceOnUse">
<stop stop-color="#FF0000"/>
<stop offset="1" stop-color="#FF8522"/>
</linearGradient>
<linearGradient id="paint2_linear_31_480" x1="17.125" y1="30.0833" x2="17.125" y2="34.8333" gradientUnits="userSpaceOnUse">
<stop stop-color="#FF0000"/>
<stop offset="1" stop-color="#FF8522"/>
</linearGradient>
<linearGradient id="paint3_linear_31_480" x1="21.875" y1="30.0833" x2="21.875" y2="34.8333" gradientUnits="userSpaceOnUse">
<stop stop-color="#FF0000"/>
<stop offset="1" stop-color="#FF8522"/>
</linearGradient>
<linearGradient id="paint4_linear_31_480" x1="19.1834" y1="8.84784" x2="19.1834" y2="18.0688" gradientUnits="userSpaceOnUse">
<stop stop-color="#FF0000"/>
<stop offset="1" stop-color="#FF8522"/>
</linearGradient>
<linearGradient id="paint5_linear_31_480" x1="19.7913" y1="15.4945" x2="19.7913" y2="24.354" gradientUnits="userSpaceOnUse">
<stop stop-color="#FF0000"/>
<stop offset="1" stop-color="#FF8522"/>
</linearGradient>
<linearGradient id="paint6_linear_31_480" x1="9.20801" y1="13.4583" x2="9.20801" y2="19" gradientUnits="userSpaceOnUse">
<stop stop-color="#FF0000"/>
<stop offset="1" stop-color="#FF8522"/>
</linearGradient>
<linearGradient id="paint7_linear_31_480" x1="8.70875" y1="19" x2="8.70875" y2="25.3333" gradientUnits="userSpaceOnUse">
<stop stop-color="#FF0000"/>
<stop offset="1" stop-color="#FF8522"/>
</linearGradient>
<clipPath id="clip0_31_480">
<rect width="38" height="38" fill="white"/>
</clipPath>
</defs>
</svg>
