<svg width="40" height="40" viewBox="0 0 40 40" fill="none" xmlns="http://www.w3.org/2000/svg">
<path d="M24.5909 11.35H15.4101C14.9 11.35 14.3949 11.4489 13.9237 11.6411C13.4524 11.8334 13.0242 12.1151 12.6635 12.4703C12.3028 12.8255 12.0167 13.2471 11.8215 13.7112C11.6263 14.1753 11.5259 14.6727 11.5259 15.175V24.2157C11.5259 25.2301 11.9351 26.203 12.6635 26.9203C13.0242 27.2755 13.4524 27.5572 13.9237 27.7495C14.3949 27.9417 14.9 28.0406 15.4101 28.0406H24.5909C25.621 28.0406 26.609 27.6376 27.3374 26.9203C28.0658 26.203 28.475 25.2301 28.475 24.2157V15.175C28.475 14.6727 28.3746 14.1753 28.1794 13.7112C27.9842 13.2472 27.6981 12.8255 27.3374 12.4703C26.9767 12.1151 26.5485 11.8334 26.0773 11.6412C25.606 11.4489 25.1009 11.35 24.5909 11.35ZM20.0005 24.9568C18.9437 24.9568 17.9107 24.6483 17.032 24.0701C16.1534 23.492 15.4686 22.6702 15.0642 21.7088C14.6598 20.7474 14.5539 19.6895 14.7601 18.6688C14.9663 17.6482 15.4751 16.7107 16.2224 15.9749C16.9696 15.239 17.9217 14.7379 18.9581 14.5349C19.9946 14.3319 21.0689 14.4361 22.0452 14.8343C23.0215 15.2325 23.856 15.9069 24.4431 16.7722C25.0302 17.6374 25.3435 18.6547 25.3435 19.6953C25.3435 20.3863 25.2053 21.0705 24.9368 21.7088C24.6683 22.3472 24.2747 22.9272 23.7786 23.4158C23.2824 23.9044 22.6934 24.2919 22.0452 24.5563C21.3969 24.8208 20.7021 24.9568 20.0005 24.9568ZM25.5663 15.5086C25.3148 15.5086 25.0691 15.4352 24.86 15.2977C24.651 15.1602 24.488 14.9647 24.3918 14.7359C24.2956 14.5072 24.2704 14.2555 24.3194 14.0127C24.3685 13.7699 24.4895 13.5468 24.6673 13.3717C24.8451 13.1967 25.0716 13.0774 25.3182 13.0291C25.5647 12.9808 25.8203 13.0056 26.0526 13.1003C26.2849 13.1951 26.4834 13.3555 26.6231 13.5614C26.7628 13.7672 26.8373 14.0093 26.8373 14.2568C26.8373 14.5888 26.7034 14.9072 26.4651 15.142C26.2267 15.3767 25.9034 15.5086 25.5663 15.5086Z" fill="url(#paint0_linear_186_2)"/>
<path d="M19.9999 16.275C19.313 16.275 18.6415 16.4756 18.0704 16.8514C17.4992 17.2272 17.0541 17.7614 16.7912 18.3864C16.5284 19.0114 16.4596 19.6991 16.5936 20.3626C16.7276 21.0261 17.0584 21.6355 17.5441 22.1138C18.0298 22.5922 18.6486 22.9179 19.3223 23.0499C19.9961 23.1819 20.6944 23.1141 21.329 22.8553C21.9636 22.5964 22.506 22.158 22.8876 21.5955C23.2693 21.0331 23.4729 20.3718 23.4729 19.6953C23.4729 18.7882 23.107 17.9182 22.4557 17.2768C21.8044 16.6353 20.921 16.275 19.9999 16.275Z" fill="url(#paint1_linear_186_2)"/>
<path d="M20 0C8.9543 0 0 8.81806 0 19.6957C0 30.5733 8.9543 39.3914 20 39.3914C31.0457 39.3914 40 30.5733 40 19.6957C40 8.81806 31.0457 0 20 0ZM30.4166 24.0426C30.4166 25.6103 29.7841 27.1139 28.6585 28.2224C27.5328 29.331 26.006 29.9538 24.4141 29.9539H15.5859C13.994 29.9538 12.4672 29.331 11.3415 28.2224C10.2158 27.1139 9.58336 25.6104 9.58328 24.0426V15.3488C9.58334 13.781 10.2158 12.2775 11.3415 11.169C12.4672 10.0604 13.994 9.43759 15.5859 9.43755H24.4141C26.006 9.43761 27.5328 10.0604 28.6585 11.169C29.7841 12.2775 30.4166 13.7811 30.4166 15.3488V24.0426Z" fill="url(#paint2_linear_186_2)"/>
<defs>
<linearGradient id="paint0_linear_186_2" x1="20.0004" y1="11.35" x2="20.0004" y2="28.0406" gradientUnits="userSpaceOnUse">
<stop stop-color="#FF0000"/>
<stop offset="1" stop-color="#FF8522"/>
</linearGradient>
<linearGradient id="paint1_linear_186_2" x1="19.9999" y1="16.275" x2="19.9999" y2="23.1156" gradientUnits="userSpaceOnUse">
<stop stop-color="#FF0000"/>
<stop offset="1" stop-color="#FF8522"/>
</linearGradient>
<linearGradient id="paint2_linear_186_2" x1="20" y1="0" x2="20" y2="39.3914" gradientUnits="userSpaceOnUse">
<stop stop-color="#FF0000"/>
<stop offset="1" stop-color="#FF8522"/>
</linearGradient>
</defs>
</svg>
