<svg width="40" height="40" viewBox="0 0 40 40" fill="none" xmlns="http://www.w3.org/2000/svg">
<path d="M24.5909 11.8218H15.4101C14.9 11.8218 14.3949 11.9207 13.9237 12.1129C13.4524 12.3051 13.0242 12.5869 12.6635 12.9421C12.3028 13.2972 12.0167 13.7189 11.8215 14.183C11.6263 14.647 11.5259 15.1444 11.5259 15.6467V24.6874C11.5259 25.7019 11.9351 26.6748 12.6635 27.3921C13.0242 27.7473 13.4524 28.029 13.9237 28.2212C14.3949 28.4135 14.9 28.5124 15.4101 28.5124H24.5909C25.621 28.5124 26.609 28.1094 27.3374 27.3921C28.0658 26.6748 28.475 25.7019 28.475 24.6874V15.6467C28.475 15.1444 28.3746 14.6471 28.1794 14.183C27.9842 13.7189 27.6981 13.2973 27.3374 12.9421C26.9767 12.5869 26.5485 12.3052 26.0773 12.1129C25.606 11.9207 25.1009 11.8218 24.5909 11.8218ZM20.0005 25.4286C18.9437 25.4286 17.9107 25.12 17.032 24.5419C16.1534 23.9637 15.4686 23.142 15.0642 22.1806C14.6598 21.2192 14.5539 20.1613 14.7601 19.1406C14.9663 18.12 15.4751 17.1825 16.2224 16.4466C16.9696 15.7108 17.9217 15.2097 18.9581 15.0067C19.9946 14.8036 21.0689 14.9078 22.0452 15.3061C23.0215 15.7043 23.856 16.3787 24.4431 17.2439C25.0302 18.1092 25.3435 19.1265 25.3435 20.1671C25.3435 20.858 25.2053 21.5422 24.9368 22.1806C24.6683 22.8189 24.2747 23.399 23.7786 23.8876C23.2824 24.3761 22.6934 24.7637 22.0452 25.0281C21.3969 25.2925 20.7021 25.4286 20.0005 25.4286ZM25.5663 15.9804C25.3148 15.9804 25.0691 15.907 24.86 15.7695C24.651 15.6319 24.488 15.4364 24.3918 15.2077C24.2956 14.979 24.2704 14.7273 24.3194 14.4845C24.3685 14.2416 24.4895 14.0186 24.6673 13.8435C24.8451 13.6684 25.0716 13.5492 25.3182 13.5009C25.5647 13.4526 25.8203 13.4774 26.0526 13.5721C26.2849 13.6669 26.4834 13.8273 26.6231 14.0332C26.7628 14.239 26.8373 14.481 26.8373 14.7286C26.8373 15.0606 26.7034 15.379 26.4651 15.6137C26.2267 15.8485 25.9034 15.9804 25.5663 15.9804Z" fill="white"/>
<path d="M19.9999 16.7466C19.313 16.7466 18.6415 16.9472 18.0704 17.323C17.4992 17.6988 17.0541 18.233 16.7912 18.858C16.5284 19.483 16.4596 20.1707 16.5936 20.8342C16.7276 21.4976 17.0584 22.1071 17.5441 22.5854C18.0298 23.0638 18.6486 23.3895 19.3223 23.5215C19.9961 23.6535 20.6944 23.5857 21.329 23.3269C21.9636 23.068 22.506 22.6296 22.8876 22.0671C23.2693 21.5047 23.4729 20.8434 23.4729 20.1669C23.4729 19.2598 23.107 18.3898 22.4557 17.7484C21.8044 17.1069 20.921 16.7466 19.9999 16.7466Z" fill="white"/>
<path d="M20 0.47168C8.9543 0.47168 0 9.28974 0 20.1674C0 31.045 8.9543 39.8631 20 39.8631C31.0457 39.8631 40 31.045 40 20.1674C40 9.28974 31.0457 0.47168 20 0.47168ZM30.4166 24.5143C30.4166 26.082 29.7841 27.5855 28.6585 28.6941C27.5328 29.8027 26.006 30.4255 24.4141 30.4255H15.5859C13.994 30.4255 12.4672 29.8027 11.3415 28.6941C10.2158 27.5855 9.58336 26.082 9.58328 24.5143V15.8205C9.58334 14.2527 10.2158 12.7492 11.3415 11.6406C12.4672 10.5321 13.994 9.90927 15.5859 9.90923H24.4141C26.006 9.90929 27.5328 10.5321 28.6585 11.6407C29.7841 12.7492 30.4166 14.2527 30.4166 15.8205V24.5143Z" fill="white"/>
</svg>
