<svg width="67" height="66" viewBox="0 0 67 66" fill="none" xmlns="http://www.w3.org/2000/svg">
<rect x="0.5" y="0.5" width="66" height="65" rx="32.5" stroke="white"/>
<path d="M37.4492 24.0024C37.5683 24.0127 37.6818 24.0606 37.7751 24.14C37.8684 24.2194 37.9373 24.3266 37.9728 24.4479C38.0084 24.5692 38.0091 24.699 37.9747 24.8207C37.9404 24.9424 37.8726 25.0504 37.7801 25.1308L29.5314 32.5056L37.7801 39.8737C37.8404 39.9278 37.8901 39.9939 37.9263 40.0684C37.9626 40.1428 37.9847 40.2242 37.9913 40.3077C37.998 40.3912 37.9891 40.4753 37.9652 40.5552C37.9413 40.6351 37.9028 40.7092 37.852 40.7732C37.8012 40.8373 37.7389 40.8901 37.6689 40.9286C37.5988 40.9672 37.5223 40.9906 37.4438 40.9977C37.3652 41.0048 37.2861 40.9953 37.2109 40.9699C37.1358 40.9445 37.0661 40.9036 37.0058 40.8495L28.2138 32.9902C28.1468 32.9303 28.093 32.8557 28.0561 32.7714C28.0191 32.6871 28 32.5953 28 32.5023C28 32.4093 28.0191 32.3174 28.0561 32.2332C28.093 32.1489 28.1468 32.0742 28.2138 32.0144L37.0058 24.155C37.0664 24.0994 37.1368 24.0572 37.213 24.031C37.2891 24.0048 37.3694 23.995 37.4492 24.0024Z" fill="white"/>
</svg>
