<svg width="67" height="66" viewBox="0 0 67 66" fill="none" xmlns="http://www.w3.org/2000/svg">
<rect width="67" height="66" rx="33" fill="url(#paint0_linear_39_1246)"/>
<path d="M37.406 24.5005L37.406 24.5005L37.4036 24.5003C37.3947 24.4995 37.3854 24.5005 37.3758 24.5038L37.213 24.031L37.3758 24.5038C37.3661 24.5071 37.355 24.5132 37.344 24.5233L37.344 24.5233L37.339 24.5278L28.547 32.3872L28.5469 32.3873C28.5348 32.3981 28.5229 32.4136 28.514 32.4338C28.5051 32.4542 28.5 32.4776 28.5 32.5023C28.5 32.5269 28.5051 32.5504 28.514 32.5707C28.5229 32.591 28.5348 32.6064 28.5469 32.6173L28.547 32.6174L37.3391 40.4768L37.3397 40.4773C37.3506 40.4871 37.3615 40.493 37.3712 40.4963L37.2109 40.9699L37.3712 40.4963C37.3808 40.4996 37.3901 40.5005 37.3989 40.4997C37.4077 40.4989 37.4176 40.4962 37.428 40.4905C37.4384 40.4848 37.4498 40.4757 37.4603 40.4625L37.8517 40.773L37.4603 40.4624C37.4709 40.4491 37.4802 40.4321 37.4862 40.4119C37.4923 40.3916 37.4947 40.3696 37.4929 40.3475C37.4911 40.3254 37.4853 40.3049 37.4768 40.2872C37.4682 40.2697 37.4575 40.2561 37.4466 40.2463C37.4465 40.2462 37.4464 40.2461 37.4464 40.2461L29.1983 32.8785L28.781 32.5058L29.1981 32.1328L37.4469 24.7581L37.4468 24.758L37.452 24.7535C37.4686 24.7391 37.4847 24.716 37.4935 24.6849C37.5023 24.6536 37.5021 24.6196 37.493 24.5886C37.484 24.5577 37.4677 24.535 37.4511 24.5208C37.4348 24.507 37.4189 24.5016 37.406 24.5005Z" stroke="black"/>
<defs>
<linearGradient id="paint0_linear_39_1246" x1="33.5" y1="0" x2="33.5" y2="66" gradientUnits="userSpaceOnUse">
<stop stop-color="#FF0000"/>
<stop offset="1" stop-color="#FF8522"/>
</linearGradient>
</defs>
</svg>
