<svg width="67" height="66" viewBox="0 0 67 66" fill="none" xmlns="http://www.w3.org/2000/svg">
<rect x="-0.5" y="0.5" width="66" height="65" rx="32.5" transform="matrix(-1 0 0 1 66 0)" stroke="white"/>
<path d="M29.594 24.5005L29.594 24.5005L29.5964 24.5003C29.6053 24.4995 29.6146 24.5005 29.6242 24.5038L29.787 24.031L29.6242 24.5038C29.6339 24.5071 29.645 24.5132 29.656 24.5233L29.656 24.5233L29.661 24.5278L38.453 32.3872L38.4531 32.3873C38.4652 32.3981 38.4771 32.4136 38.486 32.4338C38.4949 32.4542 38.5 32.4776 38.5 32.5023C38.5 32.5269 38.4949 32.5504 38.486 32.5707C38.4771 32.591 38.4652 32.6064 38.4531 32.6173L38.453 32.6174L29.6609 40.4768L29.6603 40.4773C29.6494 40.4871 29.6385 40.493 29.6288 40.4963L29.7891 40.9699L29.6288 40.4963C29.6192 40.4996 29.6099 40.5005 29.6011 40.4997C29.5923 40.4989 29.5824 40.4962 29.572 40.4905C29.5616 40.4848 29.5502 40.4757 29.5397 40.4625L29.1483 40.773L29.5397 40.4624C29.5291 40.4491 29.5198 40.4321 29.5138 40.4119C29.5077 40.3916 29.5053 40.3696 29.5071 40.3475C29.5089 40.3254 29.5147 40.3049 29.5232 40.2872C29.5318 40.2697 29.5425 40.2561 29.5534 40.2463C29.5535 40.2462 29.5536 40.2461 29.5536 40.2461L37.8017 32.8785L38.219 32.5058L37.8019 32.1328L29.5531 24.7581L29.5532 24.758L29.548 24.7535C29.5314 24.7391 29.5153 24.716 29.5065 24.6849C29.4977 24.6536 29.4979 24.6196 29.507 24.5886C29.516 24.5577 29.5323 24.535 29.5489 24.5208C29.5652 24.507 29.5811 24.5016 29.594 24.5005Z" stroke="white"/>
</svg>
