<svg width="150" height="22" viewBox="0 0 150 22" fill="none" xmlns="http://www.w3.org/2000/svg">
<path d="M5.89131 14.1979L4.52022 22L11.695 18.3191C11.7889 18.2701 11.8953 18.2701 11.9892 18.3191L19.164 22L17.7929 14.1979C17.7741 14.1001 17.8117 13.9961 17.8805 13.9288L23.6842 8.40133L15.6643 7.26403C15.5641 7.25181 15.4764 7.18455 15.4264 7.09894L11.8452 0L8.25786 7.09894C8.21403 7.19066 8.12638 7.25181 8.01995 7.26403L0 8.40133L5.80367 13.9288C5.87879 13.9961 5.9101 14.1001 5.89131 14.1979Z" fill="url(#paint0_linear_31_660)"/>
<path d="M100.628 14.1979L99.257 22L106.432 18.3191C106.526 18.2701 106.632 18.2701 106.726 18.3191L113.901 22L112.53 14.1979C112.511 14.1001 112.548 13.9961 112.617 13.9288L118.421 8.40133L110.401 7.26403C110.301 7.25181 110.213 7.18455 110.163 7.09894L106.582 0L102.995 7.09894C102.951 7.19066 102.863 7.25181 102.757 7.26403L94.7368 8.40133L100.54 13.9288C100.616 13.9961 100.647 14.1001 100.628 14.1979Z" fill="url(#paint1_linear_31_660)"/>
<path d="M37.4704 14.1979L36.0993 22L43.2741 18.3191C43.368 18.2701 43.4744 18.2701 43.5683 18.3191L50.7431 22L49.372 14.1979C49.3532 14.1001 49.3908 13.9961 49.4596 13.9288L55.2633 8.40133L47.2434 7.26403C47.1432 7.25181 47.0555 7.18455 47.0055 7.09894L43.4243 0L39.837 7.09894C39.7931 7.19066 39.7055 7.25181 39.5991 7.26403L31.5791 8.40133L37.3828 13.9288C37.4579 13.9961 37.4892 14.1001 37.4704 14.1979Z" fill="url(#paint2_linear_31_660)"/>
<path d="M69.049 14.1979L67.6779 22L74.8527 18.3191C74.9466 18.2701 75.053 18.2701 75.1469 18.3191L82.3217 22L80.9506 14.1979C80.9318 14.1001 80.9694 13.9961 81.0383 13.9288L86.8419 8.40133L78.822 7.26403C78.7218 7.25181 78.6342 7.18455 78.5841 7.09894L75.003 0L71.4156 7.09894C71.3717 7.19066 71.2841 7.25181 71.1777 7.26403L63.1577 8.40133L68.9614 13.9288C69.0365 13.9961 69.0678 14.1001 69.049 14.1979Z" fill="url(#paint3_linear_31_660)"/>
<path d="M132.207 14.1979L130.836 22L138.011 18.3191C138.105 18.2701 138.211 18.2701 138.305 18.3191L145.48 22L144.109 14.1979C144.09 14.1001 144.128 13.9961 144.196 13.9288L150 8.40133L141.98 7.26403C141.88 7.25181 141.792 7.18455 141.742 7.09894L138.161 0L134.574 7.09894C134.53 7.19066 134.442 7.25181 134.336 7.26403L126.316 8.40133L132.12 13.9288C132.195 13.9961 132.226 14.1001 132.207 14.1979Z" fill="url(#paint4_linear_31_660)"/>
<defs>
<linearGradient id="paint0_linear_31_660" x1="11.8421" y1="0" x2="11.8421" y2="22" gradientUnits="userSpaceOnUse">
<stop stop-color="#FF0000"/>
<stop offset="1" stop-color="#FF8522"/>
</linearGradient>
<linearGradient id="paint1_linear_31_660" x1="106.579" y1="0" x2="106.579" y2="22" gradientUnits="userSpaceOnUse">
<stop stop-color="#FF0000"/>
<stop offset="1" stop-color="#FF8522"/>
</linearGradient>
<linearGradient id="paint2_linear_31_660" x1="43.4212" y1="0" x2="43.4212" y2="22" gradientUnits="userSpaceOnUse">
<stop stop-color="#FF0000"/>
<stop offset="1" stop-color="#FF8522"/>
</linearGradient>
<linearGradient id="paint3_linear_31_660" x1="74.9998" y1="0" x2="74.9998" y2="22" gradientUnits="userSpaceOnUse">
<stop stop-color="#FF0000"/>
<stop offset="1" stop-color="#FF8522"/>
</linearGradient>
<linearGradient id="paint4_linear_31_660" x1="138.158" y1="0" x2="138.158" y2="22" gradientUnits="userSpaceOnUse">
<stop stop-color="#FF0000"/>
<stop offset="1" stop-color="#FF8522"/>
</linearGradient>
</defs>
</svg>
