<svg width="40" height="40" viewBox="0 0 40 40" fill="none" xmlns="http://www.w3.org/2000/svg">
<path d="M20 0C8.9543 0 0 8.81806 0 19.6957C0 30.5733 8.9543 39.3914 20 39.3914C31.0457 39.3914 40 30.5733 40 19.6957C40 8.81806 31.0457 0 20 0ZM30.3952 12.4588L26.843 29.1589C26.8001 29.3609 26.7062 29.549 26.5702 29.7059C26.4341 29.8629 26.2602 29.9837 26.0643 30.0571C25.8685 30.1306 25.6571 30.1545 25.4494 30.1265C25.2418 30.0985 25.0447 30.0195 24.8761 29.8969L19.7092 26.1377L16.5789 29.0459C16.5379 29.084 16.4897 29.1137 16.4369 29.1332C16.3842 29.1526 16.328 29.1616 16.2717 29.1595C16.2155 29.1574 16.1602 29.1443 16.1091 29.1209C16.058 29.0975 16.0121 29.0643 15.9742 29.0233L15.907 28.9505L16.4509 23.7669L26.2543 14.9461C26.3028 14.9026 26.3329 14.8427 26.3388 14.7783C26.3447 14.714 26.3258 14.6498 26.286 14.5984C26.2462 14.5471 26.1882 14.5123 26.1236 14.5009C26.059 14.4896 25.9925 14.5024 25.937 14.537L13.3996 22.3515L8 20.5656C7.85643 20.5181 7.73129 20.428 7.64177 20.3077C7.55225 20.1874 7.50272 20.0428 7.49998 19.8937C7.49724 19.7445 7.54143 19.5982 7.62647 19.4748C7.71152 19.3514 7.83326 19.2569 7.975 19.2043L29.1016 11.3669C29.2645 11.3065 29.441 11.2903 29.6125 11.3201C29.784 11.3498 29.9442 11.4244 30.0764 11.536C30.2086 11.6475 30.3079 11.7921 30.364 11.9544C30.4201 12.1167 30.4309 12.2909 30.3952 12.4588Z" fill="white"/>
</svg>
