<svg width="40" height="40" viewBox="0 0 40 40" fill="none" xmlns="http://www.w3.org/2000/svg">
<path d="M20.5465 10.3091C18.8375 10.3092 17.1607 10.7677 15.6963 11.6353C14.2318 12.503 13.035 13.7471 12.2343 15.234C11.4336 16.7209 11.0592 18.3945 11.1514 20.0751C11.2436 21.7557 11.7988 23.3798 12.7575 24.7732L11.838 28.2665L15.535 27.417C16.7692 28.1818 18.1671 28.6536 19.6183 28.7952C21.0694 28.9368 22.5342 28.7442 23.8968 28.2327C25.2594 27.7213 26.4827 26.9049 27.47 25.848C28.4573 24.7912 29.1817 23.5228 29.5859 22.1429C29.9901 20.7631 30.0631 19.3097 29.7991 17.8973C29.5351 16.485 28.9413 15.1524 28.0647 14.0047C27.1881 12.8571 26.0526 11.9259 24.7478 11.2845C23.4431 10.6431 22.0048 10.3092 20.5465 10.3091ZM25.1731 24.6336C23.8571 25.2414 21.1095 24.9243 18.2149 22.4848C15.3203 20.0452 14.5778 17.4208 14.984 16.0465C15.3903 14.6723 16.9864 14.4184 17.2875 14.484C17.5886 14.5497 19.0942 16.9003 18.889 17.1745C18.6839 17.4487 17.6929 18.4247 17.6929 18.4247C17.6929 18.4247 17.6512 19.4234 19.5119 20.9916C21.3727 22.5599 22.3682 22.365 22.3682 22.365C22.3682 22.365 23.1943 21.2495 23.4376 21.008C23.681 20.7665 26.272 21.8682 26.3844 22.151C26.4967 22.4338 26.4886 24.026 25.1727 24.6336H25.1731Z" fill="white"/>
<path d="M20 0.47168C8.9543 0.47168 0 9.28974 0 20.1674C0 31.045 8.9543 39.8631 20 39.8631C31.0457 39.8631 40 31.045 40 20.1674C40 9.28974 31.0457 0.47168 20 0.47168ZM20.5469 30.7808C18.6695 30.7835 16.8208 30.3266 15.1672 29.4512L9.11719 30.9385L10.6496 25.1067C9.41477 22.9645 8.93109 20.4812 9.2734 18.0411C9.6157 15.6009 10.7649 13.3398 12.5433 11.6075C14.3216 9.87519 16.63 8.76819 19.1115 8.45771C21.5929 8.14724 24.1091 8.6506 26.2709 9.88993C28.4326 11.1293 30.1194 13.0355 31.0705 15.3139C32.0216 17.5922 32.1838 20.1156 31.5322 22.4939C30.8806 24.8722 29.4513 26.9727 27.4656 28.4707C25.4799 29.9687 23.0483 30.7806 20.5469 30.7808Z" fill="white"/>
</svg>
