<svg width="40" height="40" viewBox="0 0 40 40" fill="none" xmlns="http://www.w3.org/2000/svg">
<path d="M20.5465 9.8374C18.8375 9.8375 17.1607 10.296 15.6963 11.1636C14.2318 12.0313 13.035 13.2754 12.2343 14.7623C11.4336 16.2492 11.0592 17.9228 11.1514 19.6034C11.2436 21.284 11.7988 22.9082 12.7575 24.3015L11.838 27.7948L15.535 26.9453C16.7692 27.7101 18.1671 28.1819 19.6183 28.3235C21.0694 28.4651 22.5342 28.2725 23.8968 27.7611C25.2594 27.2496 26.4827 26.4332 27.47 25.3763C28.4573 24.3195 29.1817 23.0511 29.5859 21.6713C29.9901 20.2914 30.0631 18.838 29.7991 17.4256C29.5351 16.0133 28.9413 14.6807 28.0647 13.5331C27.1881 12.3854 26.0526 11.4542 24.7478 10.8128C23.4431 10.1714 22.0048 9.83752 20.5465 9.8374ZM25.1731 24.1619C23.8571 24.7697 21.1095 24.4526 18.2149 22.0131C15.3203 19.5736 14.5778 16.9491 14.984 15.5749C15.3903 14.2006 16.9864 13.9467 17.2875 14.0124C17.5886 14.078 19.0942 16.4286 18.889 16.7028C18.6839 16.977 17.6929 17.9531 17.6929 17.9531C17.6929 17.9531 17.6512 18.9517 19.5119 20.52C21.3727 22.0882 22.3682 21.8934 22.3682 21.8934C22.3682 21.8934 23.1943 20.7778 23.4376 20.5363C23.681 20.2948 26.272 21.3965 26.3844 21.6793C26.4967 21.9621 26.4886 23.5543 25.1727 24.1619H25.1731Z" fill="url(#paint0_linear_186_6)"/>
<path d="M20 0C8.9543 0 0 8.81806 0 19.6957C0 30.5733 8.9543 39.3914 20 39.3914C31.0457 39.3914 40 30.5733 40 19.6957C40 8.81806 31.0457 0 20 0ZM20.5469 30.3091C18.6695 30.3118 16.8208 29.8549 15.1672 28.9795L9.11719 30.4668L10.6496 24.635C9.41477 22.4928 8.93109 20.0095 9.2734 17.5694C9.6157 15.1292 10.7649 12.8681 12.5433 11.1358C14.3216 9.40351 16.63 8.29651 19.1115 7.98603C21.5929 7.67556 24.1091 8.17892 26.2709 9.41825C28.4326 10.6576 30.1194 12.5638 31.0705 14.8422C32.0216 17.1205 32.1838 19.644 31.5322 22.0222C30.8806 24.4005 29.4513 26.5011 27.4656 27.999C25.4799 29.497 23.0483 30.3089 20.5469 30.3091Z" fill="url(#paint1_linear_186_6)"/>
<defs>
<linearGradient id="paint0_linear_186_6" x1="20.5461" y1="9.8374" x2="20.5461" y2="28.3687" gradientUnits="userSpaceOnUse">
<stop stop-color="#FF0000"/>
<stop offset="1" stop-color="#FF8522"/>
</linearGradient>
<linearGradient id="paint1_linear_186_6" x1="20" y1="0" x2="20" y2="39.3914" gradientUnits="userSpaceOnUse">
<stop stop-color="#FF0000"/>
<stop offset="1" stop-color="#FF8522"/>
</linearGradient>
</defs>
</svg>
